<svg xmlns="http://www.w3.org/2000/svg" viewBox="0 0 51.65 51.65"><defs><style>.cls-1{fill:#982cba;}</style></defs><g id="Layer_2" data-name="Layer 2"><g id="Layer_1-2" data-name="Layer 1"><path class="cls-1" d="M45.47,0H6.18A6.18,6.18,0,0,0,0,6.18V45.47a6.19,6.19,0,0,0,6.18,6.18H45.47a6.2,6.2,0,0,0,6.18-6.18V6.18A6.19,6.19,0,0,0,45.47,0ZM22.08,3V23.34l-5.34-2.8-5.35,2.8V3ZM48.65,45.47a3.19,3.19,0,0,1-3.18,3.18H6.18A3.19,3.19,0,0,1,3,45.47V6.18A3.19,3.19,0,0,1,6.18,3H8.39V28.3l8.35-4.37,8.34,4.37V3H45.47a3.19,3.19,0,0,1,3.18,3.18Z"/></g></g></svg>